<?xml version="1.0" standalone="no"?>
<!DOCTYPE svg PUBLIC "-//W3C//DTD SVG 20010904//EN"
 "http://www.w3.org/TR/2001/REC-SVG-20010904/DTD/svg10.dtd">
<svg version="1.0" xmlns="http://www.w3.org/2000/svg"
 width="196.000000pt" height="196.000000pt" viewBox="0 0 196.000000 196.000000"
 preserveAspectRatio="xMidYMid meet">
<metadata>
Created by potrace 1.11, written by Peter Selinger 2001-2013
</metadata>
<g transform="translate(0.000000,196.000000) scale(0.100000,-0.100000)"
fill="#000000" stroke="none">
<path d="M917 1874 c-1 -1 -23 -5 -48 -8 -151 -20 -320 -121 -424 -253 -64
-82 -88 -135 -91 -199 -3 -68 12 -124 66 -244 23 -52 57 -129 75 -170 62 -144
86 -195 110 -243 29 -59 22 -63 -66 -42 -35 8 -69 15 -76 15 -13 0 -32 -29
-38 -58 -2 -9 -31 -95 -65 -190 -34 -96 -60 -183 -58 -194 2 -15 28 -34 88
-66 47 -24 114 -60 150 -79 45 -24 101 -42 180 -58 229 -46 241 -47 258 -13
19 41 142 398 142 414 0 8 -35 32 -79 53 l-79 38 77 40 c42 21 162 84 266 138
105 54 208 111 230 125 109 74 137 131 142 280 4 153 -22 253 -98 382 -38 66
-158 198 -179 198 -12 0 -13 -32 -1 -45 4 -6 14 -26 20 -45 31 -89 32 -222 2
-300 -42 -110 -60 -110 -32 1 48 189 -28 392 -175 467 -36 19 -114 21 -168 5
-136 -40 -247 -143 -292 -270 -18 -52 -27 -62 -38 -44 -8 12 29 115 58 166 30
51 106 122 169 159 26 15 47 31 47 35 0 6 -67 10 -73 5z m-240 -427 c5 -3 10
-43 12 -89 1 -46 3 -100 5 -120 4 -49 -8 -49 -104 3 -83 45 -154 100 -171 131
-18 33 -3 66 34 77 33 10 207 8 224 -2z m239 -52 c166 -49 404 -145 404 -163
0 -4 -17 -26 -38 -48 -49 -55 -82 -92 -112 -130 l-26 -32 -129 43 c-109 35
-229 80 -244 91 -2 2 -5 50 -7 106 -2 57 -5 118 -7 136 -6 42 6 42 159 -3z
m-288 -252 c68 -36 72 -40 73 -73 0 -19 2 -62 4 -95 4 -96 7 -218 6 -239 -2
-31 -16 -10 -59 89 -22 50 -51 115 -65 145 -78 172 -97 219 -97 235 0 15 3 15
33 -4 17 -12 65 -38 105 -58z m877 -20 c30 -24 62 -57 70 -74 15 -27 15 -33 1
-53 -8 -13 -26 -26 -40 -28 -36 -7 -151 0 -216 12 -100 20 -105 24 -72 57 10
10 46 51 81 90 l63 73 30 -18 c16 -9 54 -36 83 -59z m-675 -73 c22 -11 40 -18
40 -15 0 3 10 0 23 -7 12 -7 24 -13 27 -13 11 -2 155 -49 159 -51 4 -4 -32
-51 -74 -99 -15 -16 -61 -69 -102 -117 -71 -83 -94 -100 -107 -79 -9 14 -26
380 -19 394 6 10 9 9 53 -13z m395 -120 c22 -5 58 -12 80 -15 22 -3 49 -8 60
-10 11 -2 24 -4 28 -4 22 -2 -18 -27 -171 -107 -92 -48 -195 -102 -229 -120
-66 -35 -88 -31 -51 10 13 13 41 46 63 72 22 26 60 69 85 97 25 27 51 58 58
68 15 22 21 22 77 9z m-615 -305 c30 -7 72 -16 93 -20 44 -7 46 10 -18 -175
-57 -166 -55 -160 -75 -160 -19 0 -220 47 -226 53 -3 3 74 230 100 291 17 40
5 39 126 11z m352 -126 c74 -37 76 -39 68 -66 -24 -77 -90 -265 -100 -283 -10
-19 -14 -18 -120 35 -61 30 -110 60 -110 65 0 6 13 45 29 88 16 42 32 88 36
102 4 14 16 48 27 77 l19 52 37 -16 c20 -8 72 -33 114 -54z"/>
<path d="M542 499 c-12 -39 -20 -75 -16 -80 3 -5 16 -9 29 -9 20 0 27 10 48
74 14 41 23 77 19 80 -3 3 -17 6 -31 6 -23 0 -28 -8 -49 -71z"/>
<path d="M497 368 c-4 -13 -1 -26 6 -30 20 -14 50 -4 53 17 5 37 -50 50 -59
13z"/>
<path d="M869 443 c-6 -16 -15 -35 -19 -44 -5 -9 -12 -32 -15 -51 -6 -30 -3
-36 20 -46 26 -12 33 -8 39 30 1 7 10 35 21 62 18 47 18 49 0 62 -27 20 -34
18 -46 -13z"/>
<path d="M812 278 c-18 -18 -14 -35 10 -52 21 -15 23 -14 34 6 14 25 11 34
-15 47 -12 7 -22 6 -29 -1z"/>
</g>
</svg>
