<?xml version="1.0" encoding="utf-8"?>
<!-- Generator: Adobe Illustrator 23.0.3, SVG Export Plug-In . SVG Version: 6.00 Build 0)  -->
<svg version="1.1" id="Layer_1" xmlns="http://www.w3.org/2000/svg" xmlns:xlink="http://www.w3.org/1999/xlink" x="0px" y="0px"
	 viewBox="0 0 223.07 61.07" style="enable-background:new 0 0 223.07 61.07;" xml:space="preserve">
<style type="text/css">
	.st0{fill:#FFFFFF;}
</style>
<g>
	<g>
		<path class="st0" d="M64.67,25.42h-9.9c-0.27,0-0.5,0.22-0.5,0.5v25.23c0,0.27,0.22,0.49,0.5,0.49h9.8c3.98,0,7.15-1.21,9.41-3.6
			c2.25-2.36,3.39-5.57,3.39-9.55c0-3.88-1.13-7.07-3.35-9.48C71.77,26.63,68.63,25.42,64.67,25.42z M59.79,30.65h4.27
			c2.38,0,4.26,0.71,5.57,2.1c1.34,1.44,1.99,3.3,1.99,5.7c0,2.46-0.66,4.42-1.97,5.82c-1.33,1.43-3.15,2.12-5.55,2.12h-4.31V30.65z
			"/>
		<path class="st0" d="M87.69,32.26c-2.64,0-4.99,0.27-6.97,0.8c-0.22,0.06-0.37,0.25-0.37,0.48v3.81c0,0.19,0.11,0.36,0.27,0.44
			l0.17,0.09c0.11,0.05,0.23,0.07,0.35,0.04c1.73-0.45,3.65-0.66,5.86-0.66c1.63,0,3.55,0.42,3.74,2.39h-4.08
			c-4.98,0-7.84,2.29-7.84,6.27c0,1.96,0.69,3.49,2.03,4.53c1.31,1.03,3.01,1.55,5.06,1.55c2.92,0,5.1-0.86,6.17-2.4l0.83,1.77
			c0.08,0.17,0.26,0.29,0.45,0.29h2.05c0.27,0,0.5-0.22,0.5-0.49V39.89C95.92,35.04,92.92,32.26,87.69,32.26z M89.7,46.37
			c-0.75,0.66-1.74,0.97-3.03,0.97c-0.61,0-2.59-0.12-2.59-1.72c0-0.79,0.3-1.84,2.86-1.84h3.82v0.18
			C90.77,44.96,90.42,45.75,89.7,46.37L89.7,46.37z"/>
		<path class="st0" d="M110.8,32.53c-0.75-0.18-1.54-0.28-2.36-0.28c-1.43,0-2.65,0.33-3.63,0.97c-0.7,0.45-1.24,0.98-1.63,1.59
			l-1.24-1.96c-0.09-0.14-0.25-0.23-0.42-0.23H99.8c-0.27,0-0.5,0.22-0.5,0.5v18.03c0,0.27,0.22,0.49,0.5,0.49h4.39
			c0.27,0,0.49-0.22,0.49-0.49v-9.52c0-2.84,1.22-4.17,3.86-4.17c0.39,0,1.07,0.04,1.96,0.1c0.09,0.01,0.18-0.01,0.26-0.05
			l0.14-0.07c0.17-0.08,0.27-0.26,0.27-0.44v-3.99C111.17,32.79,111.02,32.59,110.8,32.53z"/>
		<path class="st0" d="M121.34,32.26c-2.69,0-4.98,0.91-6.82,2.72c-1.85,1.82-2.79,4.19-2.79,7.05c0,3.06,0.99,5.51,2.93,7.29
			c1.94,1.77,4.56,2.67,7.8,2.67c2.3,0,4.21-0.26,5.68-0.78c0.2-0.07,0.33-0.26,0.33-0.47V47c0-0.2-0.12-0.38-0.31-0.46l-0.17-0.07
			c-0.11-0.04-0.23-0.05-0.33-0.01c-1.23,0.39-2.76,0.59-4.53,0.59c-3.11,0-5.22-1.08-6.02-3.06h11.87c0.24,0,0.44-0.17,0.49-0.4
			c0.21-1.03,0.31-1.99,0.31-2.95c0-2.45-0.74-4.47-2.21-6.03C126.08,33.05,123.99,32.26,121.34,32.26z M121.27,37.06
			c0.99,0,1.79,0.27,2.44,0.82c0.6,0.52,0.91,1.13,0.94,1.86h-4.92c-0.99,0.01-1.86,0.08-2.64,0.19c0.3-0.77,0.76-1.4,1.38-1.9
			C119.31,37.38,120.22,37.06,121.27,37.06z"/>
		<path class="st0" d="M152.35,25.42h-9.9c-0.27,0-0.49,0.22-0.49,0.5v25.23c0,0.27,0.22,0.49,0.49,0.49h9.8
			c3.98,0,7.15-1.21,9.41-3.6c2.25-2.36,3.39-5.57,3.39-9.55c0-3.88-1.13-7.07-3.35-9.48C159.45,26.63,156.3,25.42,152.35,25.42z
			 M147.47,30.65h4.27c2.38,0,4.26,0.71,5.57,2.1c1.34,1.44,1.99,3.3,1.99,5.7c0,2.46-0.66,4.42-1.97,5.82
			c-1.33,1.43-3.15,2.12-5.55,2.12h-4.31V30.65z"/>
		<path class="st0" d="M179.46,32.53c-0.75-0.18-1.54-0.28-2.36-0.28c-1.43,0-2.65,0.33-3.63,0.97c-0.7,0.45-1.24,0.98-1.63,1.59
			l-1.24-1.96c-0.09-0.14-0.25-0.23-0.42-0.23h-1.72c-0.27,0-0.49,0.22-0.49,0.5v18.03c0,0.27,0.22,0.49,0.49,0.49h4.39
			c0.27,0,0.5-0.22,0.5-0.49v-9.52c0-2.84,1.22-4.17,3.86-4.17c0.39,0,1.07,0.04,1.96,0.1c0.09,0.01,0.18-0.01,0.26-0.05l0.14-0.07
			c0.17-0.08,0.27-0.26,0.27-0.44v-3.99C179.84,32.79,179.69,32.59,179.46,32.53z"/>
		<path class="st0" d="M190.49,32.26c-2.94,0-5.39,0.93-7.27,2.75c-1.89,1.85-2.85,4.25-2.85,7.12c0,2.83,0.94,5.21,2.81,7.05
			c1.84,1.86,4.29,2.81,7.28,2.81c3.02,0,5.48-0.95,7.33-2.81c1.83-1.86,2.75-4.26,2.75-7.12c0-2.78-0.92-5.14-2.74-7.01
			C195.97,33.2,193.51,32.26,190.49,32.26z M193.82,45.64c-0.86,0.9-1.96,1.34-3.36,1.34c-1.42,0-2.52-0.43-3.36-1.32
			c-0.86-0.9-1.27-2.06-1.27-3.52c0-1.43,0.44-2.6,1.31-3.5c0.86-0.89,1.99-1.35,3.37-1.35c1.4,0,2.49,0.43,3.33,1.32
			c0.86,0.9,1.27,2.07,1.27,3.56C195.1,43.6,194.68,44.73,193.82,45.64z"/>
		<path class="st0" d="M219.61,34.99C219.6,34.99,219.6,34.99,219.61,34.99c-1.59-1.81-3.78-2.73-6.5-2.73c-1.58,0-3,0.31-4.22,0.92
			c-0.88,0.44-1.57,0.98-2.08,1.61l-0.87-1.88c-0.08-0.17-0.26-0.29-0.45-0.29h-2.07c-0.27,0-0.49,0.22-0.49,0.5v26.23
			c0,0.27,0.22,0.49,0.49,0.49h4.39c0.27,0,0.5-0.22,0.5-0.49v-7.88c1.08,0.35,2.27,0.53,3.58,0.53c3.08,0,5.55-0.93,7.36-2.76
			c1.81-1.81,2.72-4.29,2.72-7.4C221.95,39.11,221.16,36.8,219.61,34.99z M216.47,41.99c0,1.63-0.47,2.85-1.42,3.73
			c-0.96,0.88-2.23,1.33-3.76,1.33c-1.18,0-2.19-0.12-3-0.37v-5.91c0-0.99,0.36-1.82,1.08-2.47c0.71-0.65,1.74-0.98,3.04-0.98
			c1.26,0,2.23,0.42,2.97,1.27C216.1,39.44,216.47,40.59,216.47,41.99z"/>
	</g>
	<g>
		<g>
			<g>
				<path class="st0" d="M38.97,5.86c-0.1-0.09-0.19-0.16-0.28-0.23c-0.11-0.09-0.22-0.18-0.33-0.27c-1.14-0.86-1.58-0.71-0.66,1.01
					l-0.01,0c0.43,0.91,0.77,1.87,1,2.85c0.44,1.87,0.56,3.8,0.33,5.69c-0.27,1.88-0.86,3.73-1.87,5.33
					c-0.11,0.18-0.35,0.24-0.54,0.12c-0.17-0.1-0.23-0.32-0.15-0.49c1.49-3.23,1.64-6.92,0.67-10.24c-0.51-1.65-1.22-3.24-2.26-4.58
					c-1.03-1.34-2.36-2.43-3.87-2.96c-1.51-0.53-3.23-0.51-4.87-0.1c-1.65,0.4-3.2,1.21-4.62,2.18c-2.82,2-5.01,4.98-5.88,8.43
					c-0.05,0.21-0.26,0.34-0.47,0.29c-0.19-0.05-0.32-0.23-0.3-0.43c0.47-3.77,2.67-7.22,5.68-9.57c0.75-0.59,1.56-1.11,2.41-1.54
					l0,0c2.91-1.47-0.83-1.05-3.11-0.69C12.94,1.93,6.78,6.37,3.51,12.97c-0.69,1.53-1.08,3.75,0.55,8.03l8.16,18.34l-5.1-1.14
					c-0.57-0.13-1.15,0.19-1.35,0.75l-4.6,13.18c-0.01,0.03,0,0.05-0.01,0.08c-0.03,0.12-0.05,0.24-0.05,0.36
					c0,0.05,0.02,0.1,0.03,0.14c0.02,0.1,0.04,0.2,0.09,0.29c0.01,0.02,0.01,0.05,0.02,0.07c0.02,0.03,0.05,0.05,0.07,0.08
					c0.05,0.08,0.11,0.15,0.19,0.21c0.04,0.04,0.09,0.08,0.14,0.11c0.03,0.02,0.05,0.05,0.08,0.06l9.64,5.05
					c0.1,0.05,0.21,0.09,0.32,0.11l10.68,2.05c0.07,0.01,0.15,0.02,0.22,0.02c0.49,0,0.94-0.31,1.1-0.79c0.01-0.03,0-0.06,0.01-0.09
					l4.57-13.09c0.19-0.55-0.06-1.17-0.59-1.42l-4.58-2.22l17.79-9.26c3.99-2.36,5.06-4.37,5.47-6.01
					C48.13,19.62,45.14,11.21,38.97,5.86z M16.78,14.92c2.81,0.59,5.93,1.46,9.18,2.59c3.24,1.13,6.23,2.4,8.8,3.68
					c0.24,0.12,0.29,0.43,0.12,0.63l-5.59,6.41c-0.1,0.12-0.27,0.17-0.42,0.13c-1.92-0.55-3.94-1.19-6.03-1.92
					c-2.09-0.73-4.07-1.49-5.91-2.25c-0.15-0.06-0.24-0.2-0.25-0.36l-0.38-8.5C16.28,15.08,16.52,14.87,16.78,14.92z M26.97,30.9
					l-8.15,9.35c-0.48,0.55-1.4,0.24-1.43-0.5l-0.56-12.39c-0.01-0.3,0.28-0.51,0.56-0.39c1.48,0.62,3.03,1.22,4.65,1.78
					c1.62,0.56,3.2,1.06,4.74,1.5C27.07,30.33,27.17,30.67,26.97,30.9z M4.82,15.53c0.54-1.53,3.94-1.88,8.78-1.17
					c0.19,0.03,0.35,0.19,0.36,0.39l0.34,7.65c0.01,0.31-0.31,0.52-0.59,0.39C7.86,20.05,4.18,17.35,4.82,15.53z M7.91,22.14
					c1.77,1.14,3.9,2.3,6.3,3.42c0.14,0.06,0.23,0.2,0.24,0.35l0.54,12.01c0.02,0.45-0.6,0.6-0.78,0.18L7.33,22.65
					C7.17,22.29,7.58,21.92,7.91,22.14z M7.5,41.02c0.07-0.2,0.27-0.31,0.47-0.26l7.49,1.67c0.24,0.05,0.38,0.3,0.3,0.53L12.2,53.17
					c-0.07,0.2-0.27,0.31-0.47,0.26l-7.11-1.59l-0.39-0.09c-0.24-0.05-0.38-0.3-0.3-0.53L7.5,41.02z M25.62,47.35l-3.57,10.21
					c-0.08,0.23-0.34,0.34-0.56,0.23l-6.47-3.14l-0.44-0.21c-0.19-0.09-0.28-0.31-0.21-0.5l3.57-10.21
					c0.08-0.23,0.34-0.34,0.56-0.23l6.9,3.35C25.6,46.94,25.69,47.16,25.62,47.35z M37.33,33.13l-15,7.81
					c-0.4,0.21-0.79-0.29-0.5-0.63l7.9-9.06c0.1-0.11,0.26-0.16,0.4-0.13c2.58,0.61,4.96,1.03,7.06,1.24
					C37.6,32.41,37.69,32.95,37.33,33.13z M43.74,29.12c-0.64,1.82-5.2,1.65-11.47,0.15c-0.3-0.07-0.42-0.44-0.22-0.67l5.03-5.78
					c0.13-0.15,0.35-0.18,0.52-0.08C41.83,25.2,44.28,27.59,43.74,29.12z"/>
			</g>
			<g>
				<path class="st0" d="M11.77,43.59l-1.35-0.3c-0.15-0.03-0.3,0.05-0.35,0.19l-1.6,4.57c-0.06,0.17,0.04,0.35,0.22,0.39l1.35,0.3
					c0.15,0.03,0.3-0.05,0.35-0.19l1.6-4.57C12.04,43.81,11.94,43.62,11.77,43.59z"/>
			</g>
			<g>
				<path class="st0" d="M9.65,49.65l-1.35-0.3c-0.15-0.03-0.3,0.05-0.35,0.19l-0.4,1.13c-0.06,0.17,0.04,0.35,0.22,0.39l1.35,0.3
					c0.15,0.03,0.3-0.05,0.35-0.19l0.4-1.13C9.92,49.87,9.82,49.68,9.65,49.65z"/>
			</g>
			<g>
				<path class="st0" d="M21.92,47.3l-1.24-0.6c-0.16-0.08-0.35,0-0.41,0.17l-1.6,4.57c-0.05,0.14,0.02,0.3,0.15,0.37l1.24,0.6
					c0.16,0.08,0.35,0,0.41-0.17l1.6-4.57C22.12,47.52,22.05,47.37,21.92,47.3z"/>
			</g>
			<g>
				<path class="st0" d="M17.9,54.42l1.24,0.6c0.16,0.08,0.35,0,0.41-0.17l0.4-1.13c0.05-0.14-0.02-0.3-0.15-0.37l-1.24-0.6
					c-0.16-0.08-0.35,0-0.41,0.17l-0.4,1.13C17.7,54.2,17.77,54.36,17.9,54.42z"/>
			</g>
		</g>
	</g>
</g>
</svg>
